<svg xmlns="http://www.w3.org/2000/svg" xmlns:xlink="http://www.w3.org/1999/xlink" version="1.1" x="0px" y="0px" viewBox="0 0 100 125" enable-background="new 0 0 100 100" xml:space="preserve"><path fill="#000000" d="M49.597,98.368L27.234,35.261c-1.82-5.123-1.82-10.72,0-15.85C31.611,7.06,45.171,0.597,57.521,4.976  C69.873,9.35,76.338,22.909,71.961,35.261L49.597,98.368z M50.199,44.18V10.496h-1.205V44.18H50.199z M57.91,40.112  c0.637,0,1.154-0.514,1.154-1.156v-6.709h1.061v6.709c0,0.643,0.518,1.156,1.156,1.156s1.158-0.514,1.158-1.156v-6.709h1.361  l-1.361-6.23v-1.341c0-0.067,0.039-0.122,0.102-0.148c0.08-0.033,0.174,0.006,0.209,0.087c0.643,1.571,0.979,3.252,0.98,4.952  c0,0.544,0.445,0.984,0.988,0.984s0.986-0.443,0.986-0.988c-0.01-3.106-0.971-6.132-2.76-8.67c-0.182-0.264-0.484-0.42-0.805-0.42  h-5.09c-0.32,0-0.621,0.156-0.805,0.42c-1.789,2.538-2.754,5.563-2.76,8.67c-0.002,0.545,0.443,0.988,0.986,0.988  c0.545,0,0.988-0.44,0.988-0.984c0.002-1.7,0.336-3.381,0.977-4.952c0.027-0.061,0.086-0.102,0.152-0.102  c0.09,0,0.164,0.075,0.164,0.163v1.29l-1.363,6.281h1.363v6.709C56.754,39.599,57.273,40.112,57.91,40.112z M41.287,40.112  c0.639,0,1.156-0.514,1.156-1.156v-8.704v-5.576c0-0.067,0.037-0.122,0.098-0.148c0.086-0.033,0.182,0.006,0.213,0.087  c0.645,1.571,0.975,3.252,0.979,4.952c0,0.544,0.443,0.984,0.988,0.984s0.988-0.443,0.984-0.988  c-0.002-3.106-0.965-6.132-2.754-8.67c-0.186-0.264-0.486-0.42-0.809-0.42h-5.09c-0.318,0-0.619,0.156-0.805,0.42  c-1.787,2.538-2.752,5.563-2.758,8.67c0,0.545,0.438,0.988,0.984,0.988c0.549,0,0.988-0.44,0.992-0.984  c0.004-1.7,0.334-3.381,0.977-4.952c0.025-0.061,0.084-0.102,0.148-0.102c0.094,0,0.164,0.075,0.164,0.163v5.576v8.704  c0,0.643,0.516,1.156,1.156,1.156s1.158-0.514,1.158-1.156v-8.704c0-0.291,0.236-0.527,0.527-0.527c0.295,0,0.531,0.236,0.531,0.527  v8.704C40.128,39.599,40.646,40.112,41.287,40.112z M61.986,16.899c0-1.292-1.045-2.341-2.336-2.341  c-1.293,0-2.338,1.049-2.338,2.341c0,1.286,1.045,2.335,2.338,2.335C60.941,19.234,61.986,18.186,61.986,16.899L61.986,16.899z   M41.992,16.899c0-1.292-1.047-2.341-2.34-2.341c-1.289,0-2.334,1.049-2.334,2.341c0,1.286,1.045,2.335,2.334,2.335  C40.945,19.234,41.992,18.186,41.992,16.899L41.992,16.899z"/></svg>